<?xml version="1.0" encoding="UTF-8" standalone="no"?>
<!-- Created with Inkscape (http://www.inkscape.org/) -->

<svg
   xmlns:dc="http://purl.org/dc/elements/1.1/"
   xmlns:cc="http://creativecommons.org/ns#"
   xmlns:rdf="http://www.w3.org/1999/02/22-rdf-syntax-ns#"
   xmlns:svg="http://www.w3.org/2000/svg"
   xmlns="http://www.w3.org/2000/svg"
   xmlns:sodipodi="http://sodipodi.sourceforge.net/DTD/sodipodi-0.dtd"
   xmlns:inkscape="http://www.inkscape.org/namespaces/inkscape"
   id="svg2"
   version="1.1"
   inkscape:version="0.48.5 r10040"
   width="930"
   height="501.25"
   xml:space="preserve"
   sodipodi:docname="onemodel.eps"><metadata
     id="metadata8"><rdf:RDF><cc:Work
         rdf:about=""><dc:format>image/svg+xml</dc:format><dc:type
           rdf:resource="http://purl.org/dc/dcmitype/StillImage" /><dc:title></dc:title></cc:Work></rdf:RDF></metadata><defs
     id="defs6"><clipPath
       clipPathUnits="userSpaceOnUse"
       id="clipPath32"><path
         d="M 0,4010 0,0 l 7440,0 0,4010 -7440,0 z m 5050.4,-3226.199 35.4,-3 12.6,170.398 -24,-88.801 -12,91.204 -12,-169.801 z"
         clip-rule="evenodd"
         id="path34" /></clipPath><clipPath
       clipPathUnits="userSpaceOnUse"
       id="clipPath46"><path
         d="M 0,4010 0,0 l 7440,0 0,4010 -7440,0 z m 2351.6,-3229.199 35.4,3 -12,169.801 -11.4,-91.204 -24.6,88.801 12.6,-170.398 z"
         clip-rule="evenodd"
         id="path48" /></clipPath><clipPath
       clipPathUnits="userSpaceOnUse"
       id="clipPath92"><path
         d="M 0,4010 0,0 l 7440,0 0,4010 -7440,0 z m 5051.6,-3229.801 36,4.199 -20.4,169.204 -6.6,-91.801 -28.8,87.597 19.8,-169.199 z"
         clip-rule="evenodd"
         id="path94" /></clipPath><clipPath
       clipPathUnits="userSpaceOnUse"
       id="clipPath106"><path
         d="M 0,4010 0,0 l 7440,0 0,4010 -7440,0 z m 2349.8,-3225.602 36,-4.199 19.8,169.199 -28.2,-87.597 -7.2,91.801 -20.4,-169.204 z"
         clip-rule="evenodd"
         id="path108" /></clipPath></defs><sodipodi:namedview
     pagecolor="#ffffff"
     bordercolor="#666666"
     borderopacity="1"
     objecttolerance="10"
     gridtolerance="10"
     guidetolerance="10"
     inkscape:pageopacity="0"
     inkscape:pageshadow="2"
     inkscape:window-width="640"
     inkscape:window-height="480"
     id="namedview4"
     showgrid="false"
     inkscape:zoom="0.44193548"
     inkscape:cx="465"
     inkscape:cy="250.625"
     inkscape:window-x="396"
     inkscape:window-y="240"
     inkscape:window-maximized="0"
     inkscape:current-layer="g10" /><g
     id="g10"
     inkscape:groupmode="layer"
     inkscape:label="ink_ext_XXXXXX"
     transform="matrix(1.25,0,0,-1.25,0,501.25)"><g
       id="g12"
       transform="scale(0.1,0.1)"><path
         d="m 1469,26 1665,0 0,765 -1665,0 0,-765 z"
         style="fill:#87cfff;fill-opacity:1;fill-rule:evenodd;stroke:none"
         id="path14" /><path
         d="m 1469,26 1665,0 0,765 -1665,0 0,-765 z"
         style="fill:none;stroke:#000000;stroke-opacity:1;stroke-width:27;stroke-linecap:butt;stroke-linejoin:miter;stroke-miterlimit:10;stroke-dasharray:none"
         id="path16" /><path
         d="m 4304,26 1665,0 0,765 -1665,0 0,-765 z"
         style="fill:#00008f;fill-opacity:1;fill-rule:evenodd;stroke:none"
         id="path18" /><path
         d="m 4304,26 1665,0 0,765 -1665,0 0,-765 z"
         style="fill:none;stroke:#000000;stroke-opacity:1;stroke-width:27;stroke-linecap:butt;stroke-linejoin:miter;stroke-miterlimit:10;stroke-dasharray:none"
         id="path20" /><g
         id="g22"
         transform="scale(10,10)"><text
           transform="matrix(1,0,0,-1,164.9,43.1)"
           id="text24"><tspan
             style="fill:#ffffff;fill-opacity:1;fill-rule:nonzero;stroke:none;font-family:Times New Roman;font-variant:normal;font-weight:bold;font-size:21.6;writing-mode:lr;-inkscape-font-specification:Times-Bold"
             x="0 15.5952 22.788 40.7808 51.5808 59.9832 71.9928 84.0024 93.5928 103.1832 109.188 319.20588 336.01068 345.60108 355.19148 365.99148"
             y="0"
             sodipodi:role="line"
             id="tspan26">AtmosphericOcean</tspan></text>
</g><g
         id="g28"><g
           id="g30"
           clip-path="url(#clipPath32)"><path
             d="M 5878,1960.62 C 5398.18,1767.73 5079.81,1307.09 5068.98,790.07"
             style="fill:none;stroke:#00008f;stroke-opacity:1;stroke-width:9;stroke-linecap:butt;stroke-linejoin:miter;stroke-miterlimit:10;stroke-dasharray:none"
             id="path36" /></g></g><path
         d="m 5062.4,953.602 12,-91.204 24,88.801 -19.2,-16.801 -16.8,19.204"
         style="fill:#00008f;fill-opacity:1;fill-rule:evenodd;stroke:none"
         id="path38" /><path
         d="m 5062.4,953.602 12,-91.204 24,88.801 -19.2,-16.801 -16.8,19.204 z"
         style="fill:none;stroke:#00008f;stroke-opacity:1;stroke-width:27;stroke-linecap:butt;stroke-linejoin:miter;stroke-miterlimit:10;stroke-dasharray:none"
         id="path40" /><g
         id="g42"><g
           id="g44"
           clip-path="url(#clipPath46)"><path
             d="m 1560,1960.62 c 479.82,-192.89 798.19,-653.53 809.02,-1170.55"
             style="fill:none;stroke:#87cfff;stroke-opacity:1;stroke-width:9;stroke-linecap:butt;stroke-linejoin:miter;stroke-miterlimit:10;stroke-dasharray:none"
             id="path50" /></g></g><path
         d="m 2339,951.199 24.6,-88.801 11.4,91.204 -16.8,-19.204 -19.2,16.801"
         style="fill:#87cfff;fill-opacity:1;fill-rule:evenodd;stroke:none"
         id="path52" /><path
         d="m 2339,951.199 24.6,-88.801 11.4,91.204 -16.8,-19.204 -19.2,16.801 z"
         style="fill:none;stroke:#87cfff;stroke-opacity:1;stroke-width:27;stroke-linecap:butt;stroke-linejoin:miter;stroke-miterlimit:10;stroke-dasharray:none"
         id="path54" /><path
         d="m 5518.4,3108.8 c 0,-484.46 -795.68,-877.2 -1777.2,-877.2 -981.52,0 -1777.2,392.74 -1777.2,877.2 0,484.46 795.68,877.2 1777.2,877.2 981.52,0 1777.2,-392.74 1777.2,-877.2 z"
         style="fill:none;stroke:#000000;stroke-opacity:1;stroke-width:27;stroke-linecap:butt;stroke-linejoin:miter;stroke-miterlimit:10;stroke-dasharray:none"
         id="path56" /><path
         d="m 2003.6,2388.8 c 0,-271.72 -446.46,-492 -997.2,-492 -550.736,0 -997.20078,220.28 -997.20078,492 0,271.72 446.46478,492 997.20078,492 550.74,0 997.2,-220.28 997.2,-492 z"
         style="fill:none;stroke:#87cfff;stroke-opacity:1;stroke-width:9;stroke-linecap:butt;stroke-linejoin:miter;stroke-miterlimit:10;stroke-dasharray:none"
         id="path58" /><path
         d="m 7428.8,2388.8 c 0,-271.72 -446.46,-492 -997.2,-492 -550.74,0 -997.2,220.28 -997.2,492 0,271.72 446.46,492 997.2,492 550.74,0 997.2,-220.28 997.2,-492 z"
         style="fill:none;stroke:#00008f;stroke-opacity:1;stroke-width:9;stroke-linecap:butt;stroke-linejoin:miter;stroke-miterlimit:10;stroke-dasharray:none"
         id="path60" /><g
         id="g62"
         transform="scale(10,10)"><text
           transform="matrix(1,0,0,-1,259.4,304.1)"
           id="text64"><tspan
             style="fill:#000000;fill-opacity:1;fill-rule:nonzero;stroke:none;font-family:Times New Roman;font-variant:normal;font-weight:bold;font-size:25.2;writing-mode:lr;-inkscape-font-specification:Times-Bold"
             x="0 18.1944 30.7944 44.8056 57.4056 78.3972 85.4028 96.5916 109.1916 116.1972 122.4972 142.1028 153.2916 164.4804 178.4916 189.6804"
             y="0"
             sodipodi:role="line"
             id="tspan66">Dynamical Kernel</tspan></text>
<text
           transform="matrix(1,0,0,-1,36.26,244.1)"
           id="text68"><tspan
             style="fill:#000000;fill-opacity:1;fill-rule:nonzero;stroke:none;font-family:Times New Roman;font-variant:normal;font-weight:bold;font-size:21.6;writing-mode:lr;-inkscape-font-specification:Times-Bold"
             x="0 15.5952 22.788 40.7808 51.5808 59.9832 71.9928 84.0024 93.5928 103.1832 109.188"
             y="0"
             sodipodi:role="line"
             id="tspan70">Atmospheric</tspan><tspan
             style="fill:#000000;fill-opacity:1;fill-rule:nonzero;stroke:none;font-family:Times New Roman;font-variant:normal;font-weight:bold;font-size:21.6;writing-mode:lr;-inkscape-font-specification:Times-Bold"
             x="0 13.1976 25.2072 36.0072 44.4096 50.4144 60.0048"
             y="21"
             sodipodi:role="line"
             id="tspan72">Physics</tspan></text>
</g><g
         id="g74"
         transform="scale(10,10)"><text
           transform="matrix(1,0,0,-1,484.106,25.1)"
           id="text76"><tspan
             style="fill:#ffffff;fill-opacity:1;fill-rule:nonzero;stroke:none;font-family:Times New Roman;font-variant:normal;font-weight:bold;font-size:21.6;writing-mode:lr;-inkscape-font-specification:Times-Bold"
             x="0 20.3904 31.1904 43.2 52.7904 -319.206 -298.8156 -288.0156 -276.006 -266.4156"
             y="0"
             sodipodi:role="line"
             id="tspan78">ModelModel</tspan></text>
</g><g
         id="g80"
         transform="scale(10,10)"><text
           transform="matrix(1,0,0,-1,610.106,244.1)"
           id="text82"><tspan
             style="fill:#000000;fill-opacity:1;fill-rule:nonzero;stroke:none;font-family:Times New Roman;font-variant:normal;font-weight:bold;font-size:21.6;writing-mode:lr;-inkscape-font-specification:Times-Bold"
             x="0 16.8048 26.3952 35.9856 46.7856"
             y="0"
             sodipodi:role="line"
             id="tspan84">Ocean</tspan><tspan
             style="fill:#000000;fill-opacity:1;fill-rule:nonzero;stroke:none;font-family:Times New Roman;font-variant:normal;font-weight:bold;font-size:21.6;writing-mode:lr;-inkscape-font-specification:Times-Bold"
             x="-0.611719 12.585881 24.595481 35.395481 43.797881 49.802681 59.393081"
             y="21"
             sodipodi:role="line"
             id="tspan86">Physics</tspan></text>
</g><g
         id="g88"><g
           id="g90"
           clip-path="url(#clipPath92)"><path
             d="m 4033.18,2231.33 c 585.27,-252.06 983.7,-806.51 1035.91,-1441.619"
             style="fill:none;stroke:#000000;stroke-opacity:1;stroke-width:27;stroke-linecap:butt;stroke-linejoin:miter;stroke-miterlimit:10;stroke-dasharray:none"
             id="path96" /></g></g><path
         d="m 5031.8,949.398 28.8,-87.597 6.6,91.801 -15.6,-19.801 -19.8,15.597"
         style="fill:#000000;fill-opacity:1;fill-rule:evenodd;stroke:none"
         id="path98" /><path
         d="m 5031.8,949.398 28.8,-87.597 6.6,91.801 -15.6,-19.801 -19.8,15.597 z"
         style="fill:none;stroke:#000000;stroke-opacity:1;stroke-width:27;stroke-linecap:butt;stroke-linejoin:miter;stroke-miterlimit:10;stroke-dasharray:none"
         id="path100" /><g
         id="g102"><g
           id="g104"
           clip-path="url(#clipPath106)"><path
             d="M 3404.82,2231.33 C 2819.55,1979.27 2421.13,1424.82 2368.91,789.711"
             style="fill:none;stroke:#000000;stroke-opacity:1;stroke-width:27;stroke-linecap:butt;stroke-linejoin:miter;stroke-miterlimit:10;stroke-dasharray:none"
             id="path110" /></g></g><path
         d="m 2370.2,953.602 7.2,-91.801 28.2,87.597 -19.8,-15.597 -15.6,19.801"
         style="fill:#000000;fill-opacity:1;fill-rule:evenodd;stroke:none"
         id="path112" /><path
         d="m 2370.2,953.602 7.2,-91.801 28.2,87.597 -19.8,-15.597 -15.6,19.801 z"
         style="fill:none;stroke:#000000;stroke-opacity:1;stroke-width:27;stroke-linecap:butt;stroke-linejoin:miter;stroke-miterlimit:10;stroke-dasharray:none"
         id="path114" /></g></g></svg>