<svg id="Layer_1" data-name="Layer 1" xmlns="http://www.w3.org/2000/svg" width="127.5mm" height="79.84mm" viewBox="0 0 361.4 226.32"><defs><style>.cls-1,.cls-6{font-size:12px;}.cls-1,.cls-5,.cls-6{fill:#231f20;}.cls-1{font-family:Palatino-Roman, Palatino;}.cls-2{letter-spacing:-0.02em;}.cls-3,.cls-4{fill:none;}.cls-3{stroke:#020202;stroke-miterlimit:10;}.cls-6{font-family:Helvetica, Helvetica;}</style></defs><title>Artboard 1</title><text class="cls-1" transform="translate(29.82 53.51)">MITgcm<tspan x="0" y="14.4">main </tspan><tspan class="cls-2" x="30.07" y="14.4">r</tspan><tspan x="34.6" y="14.4">epo</tspan></text><rect class="cls-3" x="18.18" y="34.7" width="74.43" height="44.25"/><text class="cls-1" transform="translate(266.88 53.51)">MITgcm<tspan x="0" y="14.4">your </tspan><tspan class="cls-2" x="28.2" y="14.4">r</tspan><tspan x="32.73" y="14.4">epo</tspan></text><rect class="cls-3" x="255.23" y="34.7" width="74.43" height="44.25"/><text class="cls-1" transform="translate(271.37 184.96)">MITgcm<tspan x="0" y="14.4">local copy</tspan></text><rect class="cls-3" x="259.72" y="166.16" width="74.43" height="44.25"/><text class="cls-1" transform="translate(135.89 38.72)">“fork”</text><text class="cls-1" transform="translate(275.44 17.6)">“origin”</text><line class="cls-3" x1="122.81" y1="48.68" x2="215.79" y2="48.68"/><rect class="cls-4" x="207.72" y="43.1" width="13.08" height="11.04"/><polygon class="cls-5" points="207.72 54.14 210.06 48.62 207.72 43.1 220.8 48.62 207.72 54.14"/><text class="cls-1" transform="translate(20.18 17.6)">“upst<tspan class="cls-2" x="29.45" y="0">r</tspan><tspan x="33.98" y="0">eam”</tspan></text><line class="cls-3" x1="4.82" y1="104.39" x2="328.07" y2="104.39"/><text class="cls-1" transform="translate(4.82 92.63)">GitHub</text><text class="cls-1" transform="translate(4.82 126.26)">local</text><line class="cls-3" x1="286.93" y1="79.77" x2="286.93" y2="141.84"/><rect class="cls-4" x="281.41" y="139.11" width="11.04" height="13.08"/><polygon class="cls-5" points="281.41 139.1 286.93 141.45 292.45 139.1 286.93 152.18 281.41 139.1"/><line class="cls-3" x1="302.45" y1="152.18" x2="302.45" y2="90.11"/><rect class="cls-4" x="296.93" y="79.77" width="11.04" height="13.08"/><polygon class="cls-5" points="307.97 92.85 302.45 90.51 296.93 92.85 302.45 79.77 307.97 92.85"/><text class="cls-6" transform="translate(233.42 126.26)">git clone<tspan x="0" y="14.4">git pull</tspan></text><text class="cls-6" transform="translate(312.19 126.26)">git push</text><line class="cls-3" x1="220.8" y1="58.96" x2="127.82" y2="58.96"/><rect class="cls-4" x="122.81" y="53.51" width="13.08" height="11.04"/><polygon class="cls-5" points="135.88 53.51 133.54 59.03 135.88 64.55 122.81 59.03 135.88 53.51"/><text class="cls-1" transform="translate(135.89 79.77)">“pull <tspan class="cls-2" x="30.43" y="0">r</tspan><tspan x="34.96" y="0">equest”</tspan></text></svg>